<svg version="1.1" xmlns="http://www.w3.org/2000/svg" xmlns:xlink="http://www.w3.org/1999/xlink" viewBox="0 0 172 172"><g fill="none" fill-rule="nonzero" stroke="none" stroke-width="1" stroke-linecap="butt" stroke-linejoin="miter" stroke-miterlimit="10" stroke-dasharray="" stroke-dashoffset="0" font-family="none" font-weight="none" font-size="none" text-anchor="none" style="mix-blend-mode: normal"><path d="M0,172v-172h172v172z" fill="none"></path><g fill="#fff9ff"><path d="M50.0127,7.16667c-23.6241,0 -42.84603,19.22192 -42.84603,42.84603v71.97461c0,23.62411 19.22192,42.84603 42.84603,42.84603h71.97461c23.62411,0 42.84603,-19.22192 42.84603,-42.84603v-71.97461c0,-23.6241 -19.22192,-42.84603 -42.84603,-42.84603zM50.0127,21.5h71.97461c15.71908,0 28.5127,12.79362 28.5127,28.5127v71.97461c0,15.71908 -12.79362,28.5127 -28.5127,28.5127h-71.97461c-15.71907,0 -28.5127,-12.79362 -28.5127,-28.5127v-71.97461c0,-15.71907 12.79362,-28.5127 28.5127,-28.5127zM129,28.66667c-3.95804,0 -7.16667,3.20863 -7.16667,7.16667c0,3.95804 3.20863,7.16667 7.16667,7.16667c3.95804,0 7.16667,-3.20863 7.16667,-7.16667c0,-3.95804 -3.20863,-7.16667 -7.16667,-7.16667zM86,43c-23.71159,0 -43,19.28841 -43,43c0,23.71159 19.28841,43 43,43c23.71159,0 43,-19.28841 43,-43c0,-23.71159 -19.28841,-43 -43,-43zM86,57.33333c15.80656,0 28.66667,12.86011 28.66667,28.66667c0,15.80656 -12.86011,28.66667 -28.66667,28.66667c-15.80656,0 -28.66667,-12.86011 -28.66667,-28.66667c0,-15.80656 12.86011,-28.66667 28.66667,-28.66667z"></path></g></g></svg>