<?xml version="1.0" encoding="UTF-8" standalone="no"?>
<!DOCTYPE svg PUBLIC "-//W3C//DTD SVG 1.1//EN" "http://www.w3.org/Graphics/SVG/1.1/DTD/svg11.dtd">
<!-- Created with Vectornator (http://vectornator.io/) -->
<svg height="100%" stroke-miterlimit="10" style="fill-rule:nonzero;clip-rule:evenodd;stroke-linecap:round;stroke-linejoin:round;" version="1.1" viewBox="0 0 841.995 595.35" width="100%" xml:space="preserve" xmlns="http://www.w3.org/2000/svg" xmlns:vectornator="http://vectornator.io" xmlns:xlink="http://www.w3.org/1999/xlink">
<defs/>
<g id="Layer-1" vectornator:layerName="Layer 1">
<path d="M422.309 123.403L422.401 123.3L422.499 123.397C476.436 177.145 478.828 266.808 427.842 323.666L427.749 323.769L427.651 323.672C373.714 269.924 371.322 180.261 422.309 123.403Z" fill="#87afff" fill-rule="nonzero" opacity="0.604651" stroke="#8db2fd" stroke-linecap="round" stroke-linejoin="round" stroke-width="1.4547"/>
<path d="M308.546 163.038L308.56 162.9L308.697 162.922C383.876 175.008 438.224 246.363 430.086 322.298L430.071 322.436L429.935 322.414C354.755 310.329 300.408 238.974 308.546 163.038Z" fill="#87afff" fill-rule="nonzero" opacity="0.604651" stroke="#8db2fd" stroke-linecap="round" stroke-linejoin="round" stroke-width="1.4547"/>
<path d="M544.261 160.967L544.397 160.943L544.414 161.08C553.72 236.654 500.3 308.707 425.098 322.014L424.962 322.038L424.945 321.902C415.639 246.328 469.059 174.275 544.261 160.967Z" fill="#87afff" fill-rule="nonzero" opacity="0.604651" stroke="#8db2fd" stroke-linecap="round" stroke-linejoin="round" stroke-width="1.4547"/>
<path d="M427.483 274.998L427.577 274.923L427.674 274.996C480.901 315.266 482.117 381.595 430.389 423.147L430.295 423.223L430.199 423.15C376.971 382.88 375.756 316.55 427.483 274.998Z" fill="#87afff" fill-rule="nonzero" opacity="0.604651" stroke="#8db2fd" stroke-linecap="round" stroke-linejoin="round" stroke-width="1.4547"/>
<path d="M491.703 122.396L491.824 122.329L491.884 122.454C524.797 191.118 497.135 276.441 430.099 313.029L429.977 313.095L429.918 312.97C397.005 244.306 424.667 158.983 491.703 122.396Z" fill="#87afff" fill-rule="nonzero" opacity="0.604651" stroke="#8db2fd" stroke-linecap="round" stroke-linejoin="round" stroke-width="1.4547"/>
<path d="M233.773 292.335L233.686 292.227L233.798 292.146C295.503 247.532 384.389 259.558 432.329 319.007L432.416 319.115L432.304 319.196C370.598 363.81 281.713 351.784 233.773 292.335Z" fill="#87afff" fill-rule="nonzero" opacity="0.604651" stroke="#8db2fd" stroke-linecap="round" stroke-linejoin="round" stroke-width="1.4547"/>
<path d="M619.247 287.991L619.362 288.068L619.28 288.179C573.887 349.314 485.509 364.632 421.883 322.393L421.767 322.316L421.85 322.206C452.101 281.463 501.443 261.07 549.827 264.5C574.045 266.216 598.023 273.902 619.247 287.991Z" fill="#87afff" fill-rule="nonzero" opacity="0.604651" stroke="#8db2fd" stroke-linecap="round" stroke-linejoin="round" stroke-width="1.4547"/>
<path d="M351.243 122.872L351.293 122.743L351.419 122.799C421.036 153.645 455.404 236.495 428.182 307.849L428.132 307.979L428.006 307.923C358.389 277.076 324.021 194.227 351.243 122.872Z" fill="#87afff" fill-rule="nonzero" opacity="0.604651" stroke="#8db2fd" stroke-linecap="round" stroke-linejoin="round" stroke-width="1.4547"/>
<path d="M255.696 221.301L255.65 221.17L255.782 221.132C328.855 199.723 408.601 240.783 433.898 312.842L433.944 312.973L433.812 313.011C360.739 334.42 280.993 293.36 255.696 221.301Z" fill="#87afff" fill-rule="nonzero" opacity="0.604651" stroke="#8db2fd" stroke-linecap="round" stroke-linejoin="round" stroke-width="1.4547"/>
<path d="M606.131 213.19L606.265 213.225L606.224 213.356C583.445 286.014 505.011 329.527 431.037 310.545L430.903 310.511L430.944 310.379C453.723 237.721 532.157 194.209 606.131 213.19Z" fill="#87afff" fill-rule="nonzero" opacity="0.604651" stroke="#8db2fd" stroke-linecap="round" stroke-linejoin="round" stroke-width="1.4547"/>
</g>
</svg>
