<?xml version="1.0" encoding="UTF-8" standalone="no"?>
<!DOCTYPE svg PUBLIC "-//W3C//DTD SVG 1.1//EN" "http://www.w3.org/Graphics/SVG/1.1/DTD/svg11.dtd">
<!-- Created with Vectornator (http://vectornator.io/) -->
<svg height="100%" stroke-miterlimit="10" style="fill-rule:nonzero;clip-rule:evenodd;stroke-linecap:round;stroke-linejoin:round;" version="1.1" viewBox="0 0 841.995 595.35" width="100%" xml:space="preserve" xmlns="http://www.w3.org/2000/svg" xmlns:vectornator="http://vectornator.io" xmlns:xlink="http://www.w3.org/1999/xlink">
<defs/>
<g id="Layer-1" vectornator:layerName="Layer 1">
<path d="M435.563 138.216L435.655 138.113L435.753 138.21C489.69 191.958 492.082 281.621 441.095 338.479L441.003 338.582L440.905 338.484C386.968 284.737 384.576 195.074 435.563 138.216Z" fill="#8db2fd" fill-rule="nonzero" opacity="0.604651" stroke="#8db2fd" stroke-linecap="round" stroke-linejoin="round" stroke-width="1.4547"/>
<path d="M307.278 191.547L307.266 191.409L307.404 191.403C383.489 188.41 450.853 247.633 457.865 323.681L457.878 323.819L457.74 323.824C381.654 326.817 314.29 267.594 307.278 191.547Z" fill="#8db2fd" fill-rule="nonzero" opacity="0.604651" stroke="#8db2fd" stroke-linecap="round" stroke-linejoin="round" stroke-width="1.4547"/>
<path d="M574.846 191.995L574.984 192.004L574.968 192.141C566.162 267.775 497.236 325.173 421.019 320.343L420.881 320.334L420.897 320.197C429.703 244.563 498.628 187.165 574.846 191.995Z" fill="#8db2fd" fill-rule="nonzero" opacity="0.604651" stroke="#8db2fd" stroke-linecap="round" stroke-linejoin="round" stroke-width="1.4547"/>
<path d="M440.737 297.608L440.831 297.532L440.927 297.605C494.155 337.875 495.37 404.204 443.642 445.756L443.549 445.832L443.452 445.759C390.225 405.489 389.009 339.16 440.737 297.608Z" fill="#8db2fd" fill-rule="nonzero" opacity="0.604651" stroke="#8db2fd" stroke-linecap="round" stroke-linejoin="round" stroke-width="1.4547"/>
<path d="M529.482 149.786L529.617 149.755L529.641 149.89C542.851 224.537 493.238 298.92 418.827 316.029L418.692 316.06L418.668 315.924C405.458 241.277 455.071 166.895 529.482 149.786Z" fill="#8db2fd" fill-rule="nonzero" opacity="0.604651" stroke="#8db2fd" stroke-linecap="round" stroke-linejoin="round" stroke-width="1.4547"/>
<path d="M246.396 327.716L246.289 327.628L246.382 327.526C297.669 271.244 387.136 264.853 446.213 313.252L446.32 313.34L446.227 313.442C394.94 369.724 305.473 376.114 246.396 327.716Z" fill="#8db2fd" fill-rule="nonzero" opacity="0.604651" stroke="#8db2fd" stroke-linecap="round" stroke-linejoin="round" stroke-width="1.4547"/>
<path d="M640.012 328.477L640.106 328.579L640 328.667C581.487 377.392 491.987 371.466 440.098 315.431L440.004 315.33L440.11 315.241C479.106 282.769 531.863 274.569 578.078 289.298C601.21 296.669 622.704 309.785 640.012 328.477Z" fill="#8db2fd" fill-rule="nonzero" opacity="0.604651" stroke="#8db2fd" stroke-linecap="round" stroke-linejoin="round" stroke-width="1.4547"/>
<path d="M345.994 149.108L346.014 148.971L346.149 148.998C420.824 163.884 472.468 237.221 461.498 312.799L461.478 312.936L461.342 312.909C386.667 298.022 335.024 224.686 345.994 149.108Z" fill="#8db2fd" fill-rule="nonzero" opacity="0.604651" stroke="#8db2fd" stroke-linecap="round" stroke-linejoin="round" stroke-width="1.4547"/>
<path d="M261.765 254.259L261.695 254.14L261.818 254.076C329.353 218.905 415.546 243.723 454.336 309.51L454.406 309.629L454.284 309.693C386.748 344.864 300.555 320.045 261.765 254.259Z" fill="#8db2fd" fill-rule="nonzero" opacity="0.604651" stroke="#8db2fd" stroke-linecap="round" stroke-linejoin="round" stroke-width="1.4547"/>
<path d="M620.475 261.947L620.595 262.017L620.518 262.132C578.51 325.64 491.093 345.731 425.269 307.007L425.15 306.937L425.226 306.821C467.235 243.313 554.651 223.223 620.475 261.947Z" fill="#8db2fd" fill-rule="nonzero" opacity="0.604651" stroke="#8db2fd" stroke-linecap="round" stroke-linejoin="round" stroke-width="1.4547"/>
</g>
</svg>
